<svg data-name="Layer 1" xmlns="http://www.w3.org/2000/svg" viewBox="0 0 312.5 116.6"><title>party-logos</title><ellipse cx="252.9" cy="114.9" rx="41.1" ry="1.7" fill="#46a592"/><path d="M255.3 0a57.3 57.3 0 1 0 57.3 57.3A57.3 57.3 0 0 0 255.3 0zm0 102.2a44.9 44.9 0 1 1 44.9-44.9 44.9 44.9 0 0 1-44.9 44.9z" fill="#f9ef88"/><path d="M251.2 21.5c22 0 46.8-3.4 49 30.8h-97.3c.2-5.3 1.2-10.3 3.8-14.4 9.4-14.8 20-16.4 44.5-16.4z" fill="#363e67"/><path data-name="star" fill="#fff" d="M265.5 48.2l1.8-4.4-4-2.7h4.4l1.8-4.4 1.7 4.4h4.4l-3.9 2.7 1.7 4.4-3.9-2.7-4 2.7zm-15.7 0l1.8-4.4-4-2.7h4.4l1.8-4.4 1.8 4.4h4.4l-4 2.7 1.8 4.4-4-2.7-4 2.7zm-15.7 0l1.8-4.4-4-2.7h4.5l1.7-4.4 1.8 4.4h4.4l-4 2.7 1.8 4.4-4-2.7-4 2.7z"/><path d="M223.2 80.6c2-.8 2.5 4.5 2.3 10.3a44.7 44.7 0 0 0 21.3 10.5c-1-5.9-3.3-15.5-4.2-17.5s.7-1.1 11.8 0 23.6-.9 25.1-.7-.9 6.8-2 13.2a44.9 44.9 0 0 0 22.7-37.9q0-3.2-.1-6h-97.3c-.4 14.3 5.8 30.8 7.5 36.8s-1.6 10-5 10-3.7-6.9-2.5-8.2-4.2-4.8-10-4.7c-4.6 3.1-1.2 23.1 16.1 21.6 19.5-1.8 10.2-25.9 14.3-27.4z" fill="#e23c52"/><path d="M162.9 73.8a10.2 10.2 0 0 1-6.1-1.9 2.3 2.3 0 0 1-.7-2.8l1.3-3 .3-.6A6 6 0 0 1 156 63l-3 8.8a2.5 2.5 0 0 1-2.3 1.7h-4.8a2.5 2.5 0 0 1-2.3-1.7l-5-14.5a2.2 2.2 0 0 1 .2-2 2.2 2.2 0 0 1 1.9-1h4.9a2.4 2.4 0 0 1 2.3 1.8l.4 1.5.4-1.5a2.5 2.5 0 0 1 2.4-1.8h4.9a2.2 2.2 0 0 1 1.9 1l.2.4a8 8 0 0 1 5.3-1.8 11.5 11.5 0 0 1 6.1 1.9 2.3 2.3 0 0 1 .9 2.9l-1.3 3-.2.5a6.1 6.1 0 0 1 2 4.7c-.4 4-3.5 6.9-8 6.9z" fill="#353e67"/><path d="M163.2 55.9a9.5 9.5 0 0 1 4.9 1.6c.2.1.2.3.2.4l-1.4 3.1c0 .1-.1.2-.2.2h-.2a8.9 8.9 0 0 0-3.1-1.1c-.7 0-1.1.3-1.1.8s6.2 1.2 6.2 6.1c0 2.9-2.3 4.9-5.7 4.9a8.4 8.4 0 0 1-4.9-1.5c-.2-.1-.2-.3-.2-.4l1.4-3.1c0-.1.1-.2.2-.2h.2a8.3 8.3 0 0 0 3.1 1.1c.7 0 1.2-.3 1.2-.8s-6.2-1.2-6.2-6c0-2.9 2.2-4.9 5.6-4.9m-7.3.3a.2.2 0 0 1 .2.3l-5 14.6a.5.5 0 0 1-.4.3h-4.8a.5.5 0 0 1-.4-.3l-5-14.6a.2.2 0 0 1 .2-.3h4.9a.5.5 0 0 1 .4.3l2.3 9 2.3-9a.5.5 0 0 1 .4-.3h4.9m7.3-4.3a10.6 10.6 0 0 0-4.9 1.1 4.2 4.2 0 0 0-2.5-.8h-4.9a4.4 4.4 0 0 0-2.7.9 4.4 4.4 0 0 0-2.7-.9h-4.9a4.2 4.2 0 0 0-4 5.7l5 14.5a4.4 4.4 0 0 0 4.2 3h4.8a4.4 4.4 0 0 0 4.1-2.8l.8.8a12.2 12.2 0 0 0 7.3 2.3c5.6 0 9.7-3.7 9.7-8.9a8 8 0 0 0-1.6-5l1-2.2a4.3 4.3 0 0 0-1.6-5.5 13.5 13.5 0 0 0-7.1-2.2z" fill="#f9ef88"/><ellipse cx="57.3" cy="114.9" rx="41.1" ry="1.7" fill="#46a592"/><path d="M57.3 0a57.3 57.3 0 1 0 57.3 57.3A57.3 57.3 0 0 0 57.3 0zm0 102.2a44.9 44.9 0 1 1 44.9-44.9 44.9 44.9 0 0 1-44.9 44.9z" fill="#f9ef88"/><path d="M30.3 29.7c12-.3 28.6 7.3 41.5 7.3s26.5-16.2 26.5-16.2-3.7-8.2.2-16a1.3 1.3 0 0 1 2-.5c6.8 3.8 6.1 12.7 6.1 12.7s4-7.1 9.5-6.8c.7 0 2.4.2 2.2 2.3-.9 6.6-7.5 9.2-7.5 9.2s15.4 28.2 5.7 35.5c-6.6 5-14.6-10.5-17.8-10.3-5.1.3-8.3 14.9-8.3 14.9H12.6c.1-2-5.8-31.6 17.7-32.1z" fill="#363e67"/><path data-name="star" fill="#fff" d="M73.4 57.6l1.8-4.6-4.1-2.8h4.6l1.8-4.6 1.9 4.6H84L79.8 53l1.9 4.6-4.2-2.8-4.1 2.8zm-16.5 0l1.9-4.6-4.2-2.8h4.6l1.9-4.6 1.8 4.6h4.7L63.4 53l1.8 4.6-4.1-2.8-4.2 2.8zm-16.4 0l1.8-4.6-4.2-2.8h4.7l1.8-4.6 1.9 4.6h4.6L46.9 53l1.9 4.6-4.2-2.8-4.1 2.8zm-16.5 0l1.9-4.6-4.2-2.8h4.6l1.9-4.6 1.8 4.6h4.7L30.5 53l1.8 4.6-4.1-2.8-4.2 2.8z"/><path d="M5.7 77.9c4.5-1.5 8.4-10.1 8.4-10.1s.3 1.5.6 3.8A44.9 44.9 0 0 0 23 86.3a51.8 51.8 0 0 1 4-8.6c.8-1.3 2.3-.8 2.1.8-.8 6.7 6 4.3 6.8 14.3.1 1.1.1 2.5 0 4a44.6 44.6 0 0 0 10 3.9 7.6 7.6 0 0 0-1.8-6.4c-4.7-5.5-3.6-20.6 3.9-18.5s18.1 2 21.4 1.9 4.8.4 4.8 8c0 4.1-.7 11.9-.8 13.5A44.8 44.8 0 0 0 84 93.4c.1-9.3 6.4-31.7 6.4-31.7H12.6c-.1 1.2-1.7 11-7.8 15.5s.3 7 .3 7 4.6-2.9.6-6.3z" fill="#e23c52"/></svg>