<svg xmlns="http://www.w3.org/2000/svg" viewBox="0 0 500 500"><path fill="#DC214D" d="M427.1 369.9c-16.4-2.8-31.6 6.2-34 20.2-2.4 14 8.9 27.6 25.3 30.4 16.4 2.8 31.6-6.2 34-20.2 2.4-14-8.9-27.6-25.3-30.4zm-7.2 27.5s-.1 6.8-1.2 6.9c-1 .1-3-6.3-3-6.3s-6.7 1.3-7 .3c-.2-1 5.1-5.2 5.1-5.2s-3.1-4.9-2.5-5.3c.6-.4 5.1 3 5.1 3s4.9-3.2 5.4-2.9c.6.3-.2 5.2-.2 5.2s5.2 3.6 5.1 4.1c0 .5-6.8.2-6.8.2zm-87.5 16.8c1.2-1.2 1.3-3.2.2-4.4l-28.1-31c-1.1-1.3-3-1.2-4.1.1l-15.5 18.2c-1.1 1.3-1 3.3.3 4.4l29.3 25.8c1.3 1.1 3.3 1.1 4.5-.1l13.4-13z"/><path fill="#DC214D" d="M299.8 414.2c-1.2-1.2-.1-3.2 1.1-4.4l28.1-31c1.1-1.3 3-1.2 4.1.1l15.5 18.2c1.1 1.3 1 3.3-.3 4.4L317 429.6l-17.2-15.4z"/><path fill="#DC214D" d="M351.5 371.7l19.8 73-29.8 3.4-14.3-71.3"/><path fill="#363E67" d="M80.7 291.6c-1.6.4-3 2.2-3.1 3.8l-1.8 43.2 35.1 2.7-12.4-51.1c-.4-1.6-2.1-2.7-3.7-2.2l-14.1 3.6z"/><path fill="#363E67" d="M100.6 298.9l-2.1-8.7c-.4-1.6-2.1-2.7-3.7-2.2l-14.1 3.6c-1.6.4-3 2.2-3.1 3.8l-.4 10.5 23.4-7z" opacity=".3"/><path fill="#DC214D" d="M57.5 442.1l-9.8-52.3c-.4-1.9.9-3.8 2.7-4.3l33.4-7.8c1.9-.4 3.3.8 3.2 2.7l-4.9 63.8-24.6-2.1z"/><path fill="#352C3A" d="M87 380.5c.2-1.9-1.3-3.2-3.2-2.7l-33.4 7.8c-1.9.4-3.1 2.4-2.7 4.3l1.7 8.6 36.4-3.3 1.2-14.7z" opacity=".2"/><path fill="#363E67" d="M337 268.2l-2.4 73.5c0 1.7 1.3 2.9 3 2.7l23.7-2.9c1.7-.2 3-1.8 2.9-3.4l-3.2-67.7-24-2.2z"/><path fill="#363E67" d="M330.7 325.2l48.9-4.6-2.6 25.7-43.4-1.7"/><path fill="#352C3A" d="M310.1 384.9l-5.6-6.2c-1.1-1.3-3-1.2-4.1.1L284.9 397c-1.1 1.3-1 3.3.3 4.4l14.6 12.9 10.3-29.4z" opacity=".2"/><path fill="#363E67" d="M150.3 278.5c-18.2 0-32.9 14.7-32.9 32.9s14.7 32.9 32.9 32.9 32.9-14.7 32.9-32.9-14.7-32.9-32.9-32.9zm.2 46c-5.3 0-9.7-4.3-9.7-9.7 0-5.3 4.3-9.7 9.7-9.7s9.7 4.3 9.7 9.7c0 5.4-4.3 9.7-9.7 9.7zm74.3-60c-16.6.3-29.9 12-29.7 26.2s13.9 25.5 30.5 25.2c16.6-.3 29.9-12 29.7-26.2s-13.9-25.5-30.5-25.2zm-6.2 36.9c-5.3.1-9.7-4.2-9.8-9.5-.1-5.3 4.2-9.7 9.5-9.8s9.7 4.2 9.8 9.5c.1 5.3-4.2 9.7-9.5 9.8z"/><path fill="#363E67" d="M221.1 301c-.8.2-1.6.4-2.5.4-5.3.1-9.7-4.2-9.8-9.5-.1-5.3 4.2-9.7 9.5-9.8 1 0 1.9.1 2.8.4v-17.7c-14.8 1.8-26.2 12.8-26 25.9.2 12.9 11.4 23.3 25.8 25l.2-14.7z" opacity=".3"/><path fill="#363E67" d="M306.4 269.4c-16.4-2.8-31.6 6.2-34 20.2-2.4 14 8.9 27.6 25.3 30.4s31.6-6.2 34-20.2c2.4-13.9-8.9-27.5-25.3-30.4zm-13 35.1c-5.3-.9-8.8-5.9-7.9-11.2.9-5.3 5.9-8.8 11.2-7.9 5.3.9 8.8 5.9 7.9 11.2-.9 5.3-5.9 8.8-11.2 7.9z"/><path fill="#DC214D" d="M482.7 422.6l14.8-56.3-32.6-4-2.5 55.6m8.9 8.4c-9.2-1.6-17.7 3.5-19.1 11.3-1.4 7.8 5 15.5 14.2 17.1 9.2 1.6 17.7-3.5 19.1-11.3 1.3-7.9-5-15.5-14.2-17.1z"/><path fill="#363E67" d="M407.7 303.6c-.2-1.7 1.1-3.1 2.8-3.1h15.9l1 15.4H412c-1.7 0-3.2-1.4-3.4-3.1l-.9-9.2z"/><path fill="#363E67" d="M412 316h3.6l2-15.4h-7.1c-1.7 0-2.9 1.4-2.8 3.1l.9 9.3c.2 1.6 1.7 3 3.4 3z" opacity=".3"/><path fill="#DC214D" d="M263.4 378.3l-34.8 3.8s10.7 26.3 10.7 35.2c0 5.9-4.6 10.4-10.4 10.4-5.7 0-10.4-4.6-10.4-10.4 0-7 5.3-22.8 5.3-22.8l-26.1-13.1s-2.7 17.9-4.3 32.2c-2.7 24.8 15.8 35.3 35.3 35.3 19.5 0 35.3-15.8 35.3-35.3-.1-.3-.6-35.3-.6-35.3z"/><path fill="#363E67" d="M49.9 278.2l67.5-18.7 3.6 31.7-68.5 9.4"/><path fill="#DC214D" d="M193.7 435.2L174.4 414c7.1-4.8 11.6-12.3 11.5-20.6-.2-14.2-13.9-25.5-30.5-25.2-16.6.3-29.9 12-29.7 26.2.2 12.5 10.8 22.7 24.6 24.8L165 447l28.7-11.8zm-54.3-39.6c-.1-5.3 4.2-9.7 9.5-9.8 5.3-.1 9.7 4.2 9.8 9.5.1 5.3-4.2 9.7-9.5 9.8-5.4.1-9.7-4.2-9.8-9.5z"/><path fill="#363E67" d="M191.2 262.1l-7.5 78.4 36.2 2-5.9-78.7"/><path fill="#363E67" d="M288.7 302.2c-2.4-2.1-3.7-5.4-3.1-8.8.2-1.1.6-2.2 1.1-3.1l-2.8-16.8c-6 3.7-10.3 9.4-11.5 16.2-2.1 12.1 6.1 23.9 18.9 28.7l-2.6-16.2z" opacity=".3"/><path fill="#363E67" d="M258.7 272.3l-.7 75.9 32.1-3.2-8-75.7"/><path fill="#363E67" d="M335.4 318.5l28 1.9.1 1.8-28.3 2.6" opacity=".3"/><path fill="#363E67" d="M444.9 320.6l-32.5-1.5.2-22.7 24.4-4.9-.5-23.3-53.1 1.9 5.8 73.8 54.3 3.6"/><path fill="#DC214D" d="M30.3 363.8l80.6-6.6 2.8 36.6-85.2-3.1"/><path fill="#352C3A" d="M149.2 405.1c-5.3.1-9.7-4.2-9.8-9.5-.1-5.3 4.2-9.7 9.5-9.8 1 0 1.9.1 2.7.4l.6-17.7c-15.1 1.6-26.7 12.7-26.5 26 .2 12.5 10.8 22.7 24.6 24.8l.5-14.3c-.4 0-1 .1-1.6.1z" opacity=".2"/><path fill="#DC214D" d="M122.2 367.5l-8.5 75.2 35.3 3-4.5-79.3m137.6 4.4l-20 72.6 29.8 4.1 14.1-70.8"/><path fill="#352C3A" d="M327.8 379.9l6.8 33.7-6 5.4-2.8-36.9m81-9.4c-7.1 3.6-12.3 9.7-13.6 17.4-1.9 10.9 4.6 21.6 15.3 27.1l-1.7-44.5z" opacity=".2"/><path fill="#DC214D" d="M375.4 444.5l-2.6-80.1 32.8 4.4-7 76.1"/><path fill="#363E67" d="M468.8 322.3l5.3-8.9 4.3 7.6 10.9 1.5-9.8 6.5 4.4 10.9-9.8-6.5-9.8 6.5 2.7-12-8.1-5.4"/><path fill="#DC214D" d="M366.7 249l5.4-2.9-.2 5.2 5.1 4.1-7 .3-1.1 6.9-3-6.4-7 .3 5.1-5.2-2.5-5.3m-63.6 212l5.4-2.8-.1 5.2 5.1 4.1-7 .3-1.2 6.8-2.9-6.3-7 .3 5.1-5.3-2.5-5.2"/><path fill="#363E67" d="M96 451.1l3.3-1.7-.1 3.1 3.1 2.6-4.3.1-.7 4.2-1.8-3.8-4.3.1 3.1-3.2-1.5-3.2M14.1 339.6l5.3-8.9 4.3 7.6 10.9 1.5-9.8 6.5 4.4 10.9-9.8-6.5-9.8 6.5 2.7-12-8.1-5.4"/><path fill="#FFF" d="M122.2 309.2l1.3-.1c.3-9.6 6.5-17.6 15.1-20.7l-.9-2.3c-9 4-15.3 12.8-15.5 23.1z" opacity=".2"/><path fill="#FFF" d="M127 303.3c-.4 1.2-.6 2.4-.8 3.5.4 0 .8-.1 1.2-.2.1-1 .4-2 .7-3 .9-2.9 2.4-5.4 4.3-7.5l-1.1-.6c-1.9 2.2-3.4 4.8-4.3 7.8zm-26-35.2l.5 1.3 12.1-3.9.5 8.3h1.6l-1.4-9.1m210.3 149.6l-1.1-.8-6.9 9.7-5.9-5.8-1.3.9 7.3 7.1m-237.5.8l-1.4-.2-1.1 12.2-8.4-2.7-.7 1.4 9.5 2.3m268.6-165.3l.1 1.4 12.2-1.2-.5 11 2-.3-.6-11.3" opacity=".2"/><path fill="#DC214D" d="M67.4 338.8l.7 2.5 5.4-1.5-.3-1.8m-2.6 4.4l1.4 2.2 2.2-1.8-.8-1.6"/><path fill="#FFF" d="M251.3 290.2v-.4c-.1-6.9-3.6-13.1-9.1-17.2l-.5 1.2c4.6 4 7.5 9.7 7.6 16.1v.4h2zm10.8 30.3l.6 24.1 1.9-.3-1.4-23.6m-139.5 95.1l.6 24.1 1.8-.3-1.4-23.5" opacity=".2"/><path fill="#DC214D" d="M323.3 267l-2.4-.9-2.1 5.2 1.6.8m5.2-.1l-2-1.6-1.6 2.4 1.3 1.2"/><path fill="#FFF" d="M390.4 311.9l4 28.4 11.3 1.3v-3.5l-10.2.5-2.1-26.3" opacity=".2"/><circle cx="410.5" cy="340.7" r="1.3" fill="#FFF" opacity=".2"/><circle cx="430.3" cy="274" r="1.9" fill="#FFF" opacity=".2"/><circle cx="358.7" cy="287.6" r=".9" fill="#FFF" opacity=".2"/><circle cx="359.3" cy="290.9" r=".6" fill="#FFF" opacity=".2"/><circle cx="374.2" cy="342.6" r=".6" fill="#FFF" opacity=".2"/><circle cx="380" cy="438.8" r="1" fill="#FFF" opacity=".2"/><circle cx="459.7" cy="446.8" r="1" fill="#FFF" opacity=".2"/><circle cx="380.7" cy="435.8" r=".4" fill="#FFF" opacity=".2"/><circle cx="262.1" cy="316.6" r=".6" fill="#FFF" opacity=".2"/><circle cx="307.5" cy="415.4" r=".6" fill="#FFF" opacity=".2"/><circle cx="134.2" cy="294.2" r=".6" fill="#FFF" opacity=".2"/><circle cx="56.1" cy="295.9" r=".6" fill="#FFF" opacity=".2"/><circle cx="79.2" cy="421.5" r=".6" fill="#FFF" opacity=".2"/><circle cx="59.7" cy="294.6" r="1.3" fill="#FFF" opacity=".2"/><circle cx="106.7" cy="363.2" r="1.3" fill="#FFF" opacity=".2"/><circle cx="239.1" cy="271.4" r=".6" fill="#FFF" opacity=".2"/><circle cx="250.3" cy="293.5" r="1.1" fill="#FFF" opacity=".2"/><circle cx="123.7" cy="408.5" r="1.1" fill="#FFF" opacity=".2"/><path fill="#FFF" d="M168.1 413.8c.1-.1.3-.1.4-.2 6.4-2.8 10.7-8.4 12.4-15.1h-1.3c-2 5.8-6.1 10.6-11.9 13.2-.1.1-.2.1-.4.1l.8 2z" opacity=".2"/><circle cx="180.8" cy="395.3" r=".6" fill="#FFF" opacity=".2"/><circle cx="164.6" cy="414.1" r="1.1" fill="#FFF" opacity=".2"/><path fill="#FFF" d="M259.6 415.4l-1.3.2c.1 9.6-5.8 17.9-14.2 21.3l1 2.3c8.8-4.4 14.7-13.5 14.5-23.8z" opacity=".2"/><circle cx="289.2" cy="441.4" r="1.2" fill="#FFF" opacity=".2"/><circle cx="289.7" cy="436.6" r=".9" fill="#FFF" opacity=".2"/><circle cx="348.9" cy="381.2" r=".9" fill="#FFF" opacity=".2"/><path fill="#FFF" d="M350.4 383.6l4 15.3-2 .9-2.7-15.9m96.5 4.2c0-.1-.1-.3-.1-.4-2.2-6.6-7.5-11.3-14-13.6l-.1 1.3c5.6 2.4 10.1 6.9 12.2 12.9 0 .1.1.2.1.4l1.9-.6z" opacity=".2"/><circle cx="428.8" cy="373.9" r=".6" fill="#FFF" opacity=".2"/><path fill="#FFF" d="M481.8 446.8l-1.3-.7c-2.3 3.3-6.6 5.4-11.4 5.1-2.7-.1-5.1-1-7.1-2.4l-.6.7c1.8 1.2 3.9 2.1 6.2 2.5 5.8 1 11.3-1.2 14.2-5.2z" opacity=".2"/><g><ellipse cx="264.4" cy="228" fill="rgba(0,0,0,.2)" rx="60.3" ry="2.5"/><path fill="#FAF28A" d="M264.4 59.5c-46.4 0-84 37.6-84 84s37.6 84 84 84 84-37.6 84-84-37.6-84-84-84zm0 149.9c-36.4 0-65.9-29.5-65.9-65.9s29.5-65.9 65.9-65.9 65.9 29.5 65.9 65.9-29.5 65.9-65.9 65.9z"/><g><path fill="#5E8AA0" d="M272.6 116.5l-9.3 45.6 16.3 14 5.7-9.6-7.2-47.6" opacity=".2"/><path fill="#3A313F" d="M283.5 170l1.3.6 20.6-44.1-18.9-4.9m-8.7 47.5l-1 1.5-45.1-39.6 14-10.7"/><path fill="#FEFCF0" d="M274.3 208.9c4.2-.7 8.3-1.7 12.3-3.2l6.1-100.6-17.9 4.3-37.9-5.7-5.3 4.7 4.3 53.4 38.4 47.1z"/><path fill="#5E8AA0" d="M272.6 116.5l-9.3 45.6 16.3 14 5.7-9.6-7.2-47.6" opacity=".2"/><path fill="#E33D52" d="M272.3 119.6l-9 60.5 13.8 10.7 13.8-10.7-12.7-60.8"/><path fill="#3D3441" d="M317.8 182.1c-4.3-22.6-9.8-54.9-9.8-71.6-2.4-1.6-5.4-3-9.6-5-5.6-1.4-8.2-2-8.2-2l-7.7 62 4.1 40.2c12.6-4.6 23.5-13 31.2-23.6zm-108-1.6c11.8 17.2 31.8 29.1 54.5 29.1 3.4 0 6.7-.3 9.9-.8l2-41.7-43.5-62.4s-13.2 3.9-16.4 5c2.7 25.2-1.8 52-6.5 70.8z"/><path fill="#FFE885" d="M270.4 48.5s6.2 3.1 7.8 6.5c.2 5.4.3 10.5 2.4 14.6C269 57 270.4 48.5 270.4 48.5z"/><path fill="#F8BB97" d="M287.9 101.6c-1-4.4-13.8-54.1-13.8-54.1l-26.1 1-19.6 11s10.6 42.5 11.2 45.4c.6 2.8 37.1 5.8 37.1 5.8s11.8-6.4 11.2-9.1z"/><path fill="#FFF" d="M258.4 66.8c.9 1.8.4 4-1.6 5-2.1 1.1-4.1.2-5-1.6-.9-1.8-.5-4 1.6-5 2.1-1.1 4.1-.2 5 1.6z"/><path fill="#F6E284" d="M231.8 56.6l-4.2-12.2s19.2-16.7 36.3-15.9 24 24.6 24 24.6S264 63.4 252.4 59s-20.6-2.4-20.6-2.4z"/><path fill="#E5A27E" d="M266.4 68s3.2 14.7 2.8 15.9c-.6 2-3.4 1.5-4.7 1-2.3-.9-2.2-4.2.1-3.7.1-4.4-.7-13.5-.7-13.5l2.5.3z"/><path fill="#EFB692" d="M233.8 77.9s-3.7.7-3.3 2.9 4.5 10 4.3 11.1c-.3 2.4.9 3.2 2.3 2.6-.6-3.5-3.3-16.6-3.3-16.6z"/><g fill="#FFE885"><path d="M282.5 41.6l-.4-.4-1.1 1.1.4.4"/><path d="M279.767 43.363l1.033-1.221.382.322-1.033 1.222zm.461-1.824l-.349-.358 1.146-1.117.35.358zM269.6 36.2c.2.1.3.2.5.2l.7-1.4c-.2-.1-.3-.2-.5-.2l-.7 1.4zm9 11c-.2-.1-.3-.1-.5-.2l-.7 1.4c.2.1.3.2.5.2l.7-1.4zm1.3.5c-.1 0-.3-.1-.4-.1l-.5 1.5c.2.1.4.1.6.1l.3-1.5zm-.7-3.8c-.2-.1-.3-.2-.5-.3L278 45c.2.1.3.2.5.3l.7-1.4zm-3.7-7.3l.3.3 1.2-1c-.1-.1-.2-.3-.4-.4l-1.1 1.1zm-3.1-3.8l-.7 1.4c.2.1.3.1.5.2l.7-1.4c-.1-.1-.3-.2-.5-.2zm-.1 4.9l.5.3.8-1.4-.5-.3m.6 2.2c.1.1.2.1.4.3l.9-1.3c-.2-.1-.4-.2-.5-.3l-.8 1.3zm4.302.764l-.347-.36 1.154-1.11.346.36zM270.4 33.6c.2.1.3.1.5.2l.6-1.5c-.2-.1-.3-.1-.5-.2l-.6 1.5zm4 2.1c.1.1.3.2.4.3l1-1.3c-.1-.1-.3-.2-.5-.3l-.9 1.3zm2.2 2l.3.4 1.2-1.1-.4-.4M276.5 48l.7-1.4-.5-.3-.7 1.4m3.126-7.35l-.348-.36 1.15-1.113.347.36zM276.6 42.3c-.1-.1-.3-.2-.4-.3l-1 1.2c.1.1.3.2.5.4l.9-1.3zm-5.1 1.3c-.2-.1-.3-.2-.5-.2l-.7 1.4c.2.1.3.1.5.2l.7-1.4zm.2-8l-.8 1.4c.2.1.3.2.5.3l.8-1.4c-.1-.2-.3-.3-.5-.3zm.5 3.5l-.8 1.4c.2.1.3.2.4.3l.8-1.4c0-.2-.2-.2-.4-.3zm-3.5 0c.2.1.3.1.5.2l.6-1.5c-.2-.1-.3-.1-.5-.2l-.6 1.5zm2.6-.5c-.2-.1-.3-.2-.5-.2l-.7 1.4c.2.1.3.2.5.2l.7-1.4zm-1.9 5.8l.6-1.5c-.2-.1-.3-.1-.5-.2l-.6 1.5c.2.1.4.1.5.2zm3.6-.1l-.5-.2-.7 1.4.5.2m3.8-5.3l.4.3 1-1.2-.4-.4m-.5 5.1c.2.1.3.2.5.3l.8-1.4c-.2-.1-.3-.2-.4-.3l-.9 1.4zm-1.7-4.8c.1.1.3.2.4.3l1-1.2c-.1-.1-.3-.2-.4-.3l-1 1.2zm.6 1.9l-.4-.4-1 1.2c.1.1.2.2.4.3l1-1.1zm-1.4-1.1c-.1-.1-.3-.2-.5-.3l-.9 1.3c.1.1.3.2.4.3l1-1.3zm5.9 1.3l-.4-.3-1 1.2.4.3m.4 3.1l.5.2.7-1.4-.5-.2m-2.386-2.678l-.384-.319 1.021-1.231.385.32zM265.2 55.7l-.5-.1-.4 1.5.6.1m-.3-9.9l-.5-.1-.3 1.6.5.1m2.671 3.084l.49.105-.336 1.564-.489-.104zM260.9 34h.5v-1.6h-.6l.1 1.6zm4.3 2.2c-.2-.1-.4-.1-.5-.1l-.4 1.5c.2 0 .3.1.5.1l.4-1.5zm-5.3-4.8h.5l.1-1.6h-.6v1.6zm9 1.7c.2.1.3.1.5.2l.5-1.5c-.2-.1-.3-.1-.5-.2l-.5 1.5zm-1.1 3.9l-.6 1.5c.2.1.3.1.5.2l.6-1.5c-.2 0-.3-.1-.5-.2zm-6.6-1l.2 1.6c.2 0 .3 0 .5-.1l-.2-1.6c-.1 0-.3.1-.5.1zm9.6 12.5l-.5-.1-.2 1.6.5.1m1.5 2.8c-.2 0-.3 0-.5-.1l-.3 1.6c.2 0 .4.1.5.1l.3-1.6zm-4.4-5l-.5-.1-.3 1.6.5.1m3.9 6.7h-.5l.1 1.6h.5l-.1-1.6zm-2-8l-.5-.1-.3 1.6.5.1m1.6 2.9l-.6-.1-.3 1.5.5.1m-6.167-1.257l-.49-.1.318-1.568.49.1zM265.3 34.5c.2 0 .3.1.5.1l.5-1.5c-.2-.1-.3-.1-.5-.2l-.5 1.6zm.7-2.3c.2 0 .3.1.5.1l.4-1.5c-.2 0-.3-.1-.5-.1l-.4 1.5zm2 11.7l.5-1.5c-.2-.1-.4-.1-.6-.2l-.4 1.5c.2.1.4.1.5.2zm-1.7-5.7l.5-1.5c-.2-.1-.3-.1-.5-.2l-.5 1.5c.1.1.3.1.5.2zm-3.3 5.2l.5.1v-1.6h-.5m3.8-6.9c.2.1.3.1.5.2l.6-1.5c-.2-.1-.3-.1-.5-.2l-.6 1.5zm.7-2.4c.2 0 .3.1.5.1l.4-1.5c-.2 0-.3-.1-.5-.1l-.4 1.5zm.7 3c.2.1.3.1.5.2l.7-1.4c-.2-.1-.3-.1-.5-.2l-.7 1.4zm-2 7.2v.8h.4l.1-.8V42h-.5m-3.3-6.2v1.6h.5l.1-1.6h-.6zm-1.5-4.3c.2 0 .3 0 .5.1l.2-1.6c-.2 0-.4 0-.5-.1l-.2 1.6zm1 2.5h.5l.2-1.6h-.6l-.1 1.6zm.5-2.3c.2 0 .3 0 .5.1l.2-1.6c-.2 0-.4-.1-.5-.1l-.2 1.6zm1.7 11.8h.5v-1.6h-.5m-.2-7.6l.3-1.6c-.2 0-.4-.1-.5-.1l-.3 1.6c.1 0 .3.1.5.1zm-7.3 7.6h-.5l.1 1.6h.5m-3.1 10.2h-.5l-.1 1.6h.5l.1-1.6zm-.2-11.6c-.2 0-.4 0-.5.1l.2 1.6c.2 0 .3 0 .5-.1l-.2-1.6zm-.5 3.9h-.5v1.6h.5V46zm-1.6-7.7l.5 1.5c.2-.1.3-.1.5-.1l-.4-1.5c-.2 0-.4 0-.6.1zm.1-6.6l.6 1.5c.2-.1.3-.1.5-.2l-.6-1.5c-.1.1-.3.2-.5.2zm-.4 3.3l.5 1.4.5-.1-.5-1.5m-1.7 4l.5 1.5c.2-.1.3-.1.5-.2l-.5-1.5c-.2.1-.4.1-.5.2zm2.8 11.2h-.6l.1 1.6h.5V50zM249 33l.7 1.4.4-.2-.6-1.4m3.9 5.1l.4 1.5c.2 0 .3-.1.5-.1l-.4-1.5c-.2 0-.3 0-.5.1zm-.4-3.5l.5 1.5.5-.2-.5-1.5m2 7.8h-.5l.1 1.6h.5m-.9 6.4h-.5v1.6h.5V50zm.3-3.9h-.5l-.1 1.6h.5l.1-1.6zm-4.5-13.8l.6 1.5c.2-.1.3-.1.5-.2l-.6-1.5c-.2.1-.4.2-.5.2zm5.3 21.6c-.2 0-.4 0-.5-.1l-.2 1.6c.2 0 .3 0 .5.1l.2-1.6zM250 35.5l.6 1.5.5-.2-.6-1.5m17.644 18.482l.33-1.565.49.103-.33 1.566zM252.3 42.3c-.2 0-.4 0-.5.1l.2 1.6c.2 0 .3 0 .5-.1l-.2-1.6zm14.2 15.3l.3-1.6c-.2 0-.3-.1-.5-.1l-.3 1.6c.1 0 .3 0 .5.1zm-1.407-4.479l.327-1.566.489.102-.327 1.567zM284.4 46.4l-.7 1.5.4.1-.1 1.6.5.1.1-1.6h-.4l.7-1.5m1.1 1.6c-.1-.2-.2-.5-.3-.7l-.5 1 .4.2-.1 1h.5l.1-1.1c0-.1-.1-.3-.1-.4zm-.1 4h.6v-1.6h-.5l-.1 1.6zm-16.2 5.6v-1.6h-.5l-.1 1.6h.6zm-19-15.2c-.2 0-.4.1-.5.1l.3 1.6c.2 0 .3-.1.5-.1l-.3-1.6zm-3.2-8.9l.7 1.4.5-.2-.7-1.5m4.5 20.3h-.5v1.6h.5v-1.6zm-.7-7.6h-.5l.1 1.6h.5l-.1-1.6zm-2.2-8.7l-.6-1.5-.5.3.6 1.4m2 14.1c.2 0 .3-.1.5-.1l-.2-1.6c-.2 0-.4.1-.6.1l.3 1.6zm-1.3-11l-.5-1.5-.6.2.6 1.4m5.7-10.1l.4 1.5c.2 0 .3-.1.5-.1l-.4-1.5c-.2 0-.3 0-.5.1zm3.4 7.5c.2 0 .3-.1.5-.1l-.4-1.5c-.2 0-.3.1-.5.1l.4 1.5zm3.7 16.8l-.5-.1-.4 1.5.5.1m-.3-9.7l-.5-.1-.2 1.6.5.1M257.6 33l.4 1.5c.2 0 .3-.1.5-.1l-.4-1.5c-.2 0-.3 0-.5.1zm3.6 17.8l-.6-.1-.2 1.5.5.1m1-10.5h-.5v1.6h.5m-1.6 0v-1.6h-.5v1.6m.3-7.2h-.1c-.1 0-.3.1-.4.1l.3 1.6c.1 0 .3-.1.4-.1h.1l-.3-1.6zm2.98 19.06l.488.114-.362 1.558-.487-.113zm-3.28-8.76h-.5l-.2 1.5.5.1m22.4-2.8l-.5-.2-.7 1.4.5.2m-18.755.265l.493.086-.277 1.576-.492-.086zM256.4 50.1h-.5l-.1 1.6h.5l.1-1.6zm6.3 1l-.5-.1-.3 1.5.5.1m-4-21.1c.2 0 .3 0 .5-.1l-.1-1.6c-.2 0-.4 0-.6.1l.2 1.6zm1.1 2.7c.2 0 .3-.1.5-.1l-.3-1.6c-.2 0-.4.1-.5.1l.3 1.6zm-4.6 3.3l.4 1.5.6-.1-.5-1.5m-.9-3.5l.5 1.5.5-.2-.5-1.5m5.5 21l-.5-.2-.3 1.6.5.1m-3.6-10h-.5l-.1 1.6h.5l.1-1.6zm.8 7.9l-.6-.1-.2 1.6.5.1m.9-5.4c-.2 0-.4 0-.5-.1l-.2 1.6c.2 0 .3 0 .5.1l.2-1.6zm14.8 5.7c-.2 0-.3 0-.5.1l.2 1.6c.2 0 .4 0 .5-.1l-.2-1.6zm-19.3-24.8l.5 1.5c.2-.1.3-.1.5-.2L254 31c-.2 0-.4.1-.5.2zm5.4 23.2l-.5-.1-.2 1.5.5.1m.9-5.4l-.6-.1-.2 1.6.5.1M256 33.4l.4 1.5c.2 0 .3-.1.5-.1l-.4-1.5c-.1 0-.3.1-.5.1zm24.8 15.9l.5.1.2-1.6h-.6m-22.7-1.5h-.5l-.2 1.6h.6m.6-6h-.5v1.6h.6m-2.3-6.4l.4 1.5.5-.1-.4-1.6m9.2 10.7l-.6-.1-.3 1.6.6.1m-21.5.3l-.6-1.5c-.2.1-.3.1-.5.2l.6 1.5c.2-.1.4-.1.5-.2zm.1 4.5h-.6l.2 1.6h.5m-1.067-3.788l.388 1.552-.485.121-.389-1.552zM245 53.1l.5-.1-.4-1.6-.5.2.2.7m-3.254-6.307l.786 1.394-.436.246-.785-1.394zM243 50.1l-.7-1.4-.5.2.7 1.4m.4 3.9h-.6l.2 1.6.5-.1m3.1-1.9l-.6.1.2 1.6.5-.1m.506-4.337l.362 1.559-.487.113-.362-1.559zm.994 2.637l-.6.1.1 1.6.6-.1m-1.9-11.5c-.2.1-.4.1-.5.2l.6 1.5c.2-.1.3-.1.5-.2l-.6-1.5zm-3.903 8.466l.399 1.55-.484.124-.4-1.55zM244.9 39.6c.1-.1.3-.1.5-.2l-.7-1.4c-.2.1-.3.2-.5.2l.7 1.4zm-1.6-3.7l.8 1.3.4-.2-.7-1.4m1.2 7.1l.4-.2-.6-1.5-.5.2m1.6 7.7l-.6-1.5c-.2.1-.3.1-.5.2l.6 1.5c.2 0 .3-.1.5-.2zm-7.116-1.387l.759 1.408-.44.238-.76-1.41zM240.9 44.9c.2-.1.3-.2.4-.3l-.9-1.3c-.1.1-.2.2-.4.3l.9 1.3zm-1.321-2.048l-.843-1.36.425-.264.843 1.36zm-.944-2.403l-.832-1.367.428-.26.831 1.367zm2.21 1.58l-.84-1.362.426-.262.839 1.363zM242.2 44.1c.1-.1.3-.2.4-.3l-.8-1.4c-.2.1-.3.2-.5.3l.9 1.4zm-2.6 1.8l.4-.3-.9-1.4-.4.3m2.9 6.3l-.7-1.4-.5.2.7 1.4m-1.9-12.8l.8 1.4.4-.3-.8-1.4m1.7 16.5h-.6l.3 1.6.5-.1m-1.365-9.125l.772 1.4-.438.242-.772-1.401zm.308 5.836l.409 1.547-.484.128-.408-1.547zm-3.18-11.363l-.846-1.359.424-.264.846 1.358zM240.1 51.5l-.7-1.4-.5.2.8 1.4m-1.515-8.028l-.839-1.362.426-.262.839 1.362zM247.3 48.4l-.5-1.5c-.2.1-.3.1-.5.2l.5 1.5c.2-.1.4-.1.5-.2zm-18.8-1.3V47l-.2-.3m49.2 8.7l-.5.1.2 1.4c.2-.1.3-.1.5-.2l-.2-1.3zm-1.6.2l-.5.1.2 1.6.4-.1h.1l-.2-1.6zm-31.2-20.5l.7 1.4.5-.2-.7-1.5m22.5 21.3l-.2 1.6c.2 0 .4 0 .5.1l.1-1.6s-.2-.1-.4-.1zm-27.8 0l-.2-1.6-.5.1.2 1.5h.5zm-3.2 0l-.2-1-.3.1-.4-1.3-.5.1.4 1.5.3-.1.1.7h.6zm1.6 0l-.2-1.3-.3.1-.4-1.4-.5.1.4 1.5.3-.1.2 1.1h.5zm49.4-3.5c-.1 0-.3 0-.4.1l.1.6c.3-.1.5-.2.5-.2s-.2-.2-.2-.5zm-15.767-3.915l.493.082-.263 1.578-.493-.082zM234.9 55.4l-.3.1-.3-.9.2-.1-.8-1.4-.5.3.6 1.1h-.1l.4 1.5.3-.1.1.3h.5l-.1-.8zm44.2-.3l-.5.1.2 1.1c.2-.1.3-.1.5-.2l-.2-1zm5.6-2.2h-.5l.1 1.5c.2-.1.4-.1.5-.2l-.1-1.3zm-.9 1.6l-.5.1v.2c.2-.1.3-.1.5-.2v-.1zm-3.1.4l-.5.1.1.9c.2-.1.3-.1.5-.2l-.1-.8zm1.6-.2l-.5.1.1.6c.2-.1.3-.1.5-.2l-.1-.5zm-32.2-8.5c-.2 0-.4 0-.5.1l.2 1.6c.2 0 .3 0 .5-.1l-.2-1.6zm0 5.7l-.3-1.5-.5.1.3 1.5m-.8-4l-.3-1.5c-.2 0-.4.1-.5.1l.4 1.5c.1 0 .3 0 .4-.1zm.5 5.7h-.6l.1 1.6.5-.1m-1.8-12c-.2 0-.4.1-.5.2l.5 1.5c.2 0 .3-.1.5-.1l-.5-1.6zm-14.2 12.5c-.1 0-.2 0-.3.1l-.1-.5.2-.1-.8-1.4-.5.3.5.8h-.1l.5 1.5.2-.1c.2 0 .3 0 .5-.1l-.1-.5zM246.4 42l.5-.2-.6-1.4-.5.2m2.8 11.7l-.4-1.6-.5.1.4 1.6m-1.8-13.5l.4-.2-.6-1.5-.5.2m-4.298 1.348l-.802-1.385.433-.25.802 1.384zM231.9 56.1h-.3l.2.6h.2l-.1-.6zm15.6-19.5l-.4.2.6 1.4.5-.2m.1 3.2l-.6-1.4-.4.2.6 1.4m-1.3-7.3l-.5.3.7 1.4.5-.3m1.8 7.4c-.2 0-.4.1-.5.1l.4 1.5c.2 0 .3-.1.5-.1l-.4-1.5zm1.8 10.7h-.5v1.6h.5m35.3-2.4h-.5l.1 1c.2-.1.4-.1.5-.2l-.1-.8zm-3.2-7l-.7 1.4.5.2.6-1.4m.9 6.1h.5l.1-1.6h-.5l-.1 1.6z"/><path d="M285.5 47.2c-.1-.2-.2-.4-.2-.5l-.7.8.4.3.5-.6zm-.9-1.8l-.2-.2-1 1.2.4.3.8-.9.1.2.2-.2c-.1-.1-.2-.3-.3-.4zm-2.8 4.8l-.5-.1-.2 1.6.5.1m1.8-7.4l-.2-.2-1 1.2.4.3.8-1 .2.2.6-.6c-.1-.2-.2-.3-.3-.5l-.5.6zm-.3 8.6h-.5v1.6l.6-.1m.2-4.1l-.5-.1-.2 1.6.5.1m-.7-4.1l-.1 1.6h.5l.1-1.5m-51.8 7l.4 1.1c.1 0 .1-.1.2-.1l-.6-1zm-.5-1.5c.1 0 .2-.1.3-.2l-.6-1.3.4-.3-.9-1.3-.2.1.4 1 .2.3h-.1l.5 1.7zm26.2-21.7c.2 0 .3-.1.5-.1l-.3-1.6c-.2 0-.3.1-.5.1l.3 1.6zm25.3 11.6l-.2-.2-1 1.2.4.3.9-1.1.2.2.6-.6.3-.3c-.1-.1-.2-.3-.3-.4l-.9.9zm-9.1-8.5c.2.1.3.2.4.3l.8-1.4c-.2-.1-.3-.2-.5-.3l-.7 1.4zM265 32l.3-1.6c-.2 0-.4-.1-.5-.1l-.3 1.6c.1.1.3.1.5.1zm13.3 21.1h-.5v1.6h.5m-3.1-1.6h-.6v1.6h.5M274 49l-.5-.1-.1.6-.2 1 .5.1m2.5 2.5h.5v1.6h-.5zm-2.3-8.3l-.7 1.4.5.3.7-1.4"/><path d="M273.3 49.7l.1-.2.1-.6m8 4.1h-.5v1.6h.6m-39.1-9.1l.8 1.4.4-.3-.8-1.4m30.7 7.9h-.5v1.6h.5v-1.6zm4.531-3.425l.495.075-.24 1.582-.495-.075zm1.247 3.429l.5-.01.03 1.6-.5.01zM280.3 50l-.6-.1-.2 1.6.5.1m-51.005-6.788l.91 1.317-.412.284-.91-1.316zm45.555 2.17l.751-1.412.442.235-.752 1.412zm2.085 2.492l.494.078-.25 1.58-.494-.078zm-1.819 1.28l.26-1.58.493.082-.26 1.579zM274.6 57.4l-.2-1.6-.5.1.1.8.1.8m-44.9-10.227l.426-.262.838 1.363-.426.262zm8.057-3.03l-.426.263-.839-1.363.426-.262zm-1.275 4.774l.737 1.42-.444.23-.736-1.42zm1.366-.741l.746 1.415-.442.233-.747-1.415zm-.874-2.27l.893 1.327-.415.28-.893-1.329zm.083 5.52l.75 1.414-.442.234-.75-1.414zm-1.93-7.557l.426-.262.84 1.363-.427.262zm3.305 6.809l.734 1.421-.445.23-.733-1.422zM243.6 43.4c.2-.1.3-.2.5-.2l-.7-1.4c-.2.1-.3.2-.5.2l.7 1.4zm-1.36-2.184l-.839-1.363.426-.262.838 1.363zm-3.336 11.842l.418 1.544-.483.13-.417-1.544zM241.9 36.6l.8 1.4.4-.2-.7-1.4m-4.56 8.79l.898 1.324-.414.28-.898-1.324zm4.867-6.218l.425-.264.843 1.36-.425.264zM243.9 44.7l.8 1.4c.1-.1.3-.2.4-.2l-.7-1.4c-.2 0-.4.1-.5.2zm-7.948-2.676l-.856-1.35.422-.269.857 1.352zm-2.74 8.447l.718 1.43-.446.224-.72-1.43zm-2.599-4.028l.426-.262.838 1.364-.426.261zm.935-3.38l.889 1.33-.416.278-.889-1.33zm1.044 5.642l.886 1.332-.417.277-.886-1.332zm1.635-7.458l.866 1.346-.42.27-.866-1.345zm-4.007 2.723l.899 1.324-.414.28-.898-1.324zm1.488 7.269l.708 1.435-.449.22-.707-1.434zm-.518-1.716l.884 1.333-.417.276-.884-1.333zm2.161-4.69l.426-.261.838 1.363-.426.262zm-1.41.833l.426-.262.838 1.363-.426.262zm3.211 1.267l.89 1.33-.415.278-.89-1.33zm.045 5.327l.76 1.409-.441.237-.759-1.409zm-.599-2.53l.728 1.425-.446.227-.727-1.425zm-.682-1.94l.887 1.331-.416.277-.887-1.331zm-.116-4.29l-.9-1.3-.5.2.9 1.4"/></g><path fill="#EFB692" d="M248.4 89.1c.1.5.1.9-.7 1-.8.2-.9-.2-1.1-.6-.1-.5.2-1 .7-1s1 .1 1.1.6zm.7 2.8c.1.3-.2.6-.6.8-.4.2-.8-.1-.9-.4-.1-.3.1-.7.6-.8.4-.1.8.1.9.4zm-3.7-1.1c.3-.2.6-.1 1 .2s.3.8 0 1c-.3.2-.7.2-1-.2s-.2-.8 0-1zm4.7-.3c0 .2 0 .4-.3.4-.3.1-.4-.1-.4-.3 0-.2 0-.4.3-.4s.3.1.4.3zm28-10.8c.1.5.1.9-.7 1s-.9-.2-1.1-.6c-.1-.5.2-1 .7-1 .6-.1 1 .2 1.1.6zm.6 2.9c.1.3-.2.6-.6.8-.4.2-.8-.1-.9-.4-.1-.3.1-.7.6-.8s.8.1.9.4zm-3.5-1.1c.3-.2.6-.1 1 .2.4.3.3.8 0 1-.3.2-.7.2-1-.2-.3-.4-.3-.8 0-1zm4.5-.2c0 .2 0 .4-.3.4-.3.1-.4-.1-.4-.3 0-.2 0-.4.3-.4s.4.1.4.3zM238 98c7 2.4 28.9 8.4 36.7 11.4-4.3.2-35-4.3-35-4.3 0-.1-.1-.1-.1-.2 0-.2-.1-.5-.2-.9-.4-1.5-.3-1.4-1.4-6zm48.3-3.3c.5 1.6 1.4 6.1 1.5 6.3 0 .1.1.5.1.6-.2 1.5-3.8 6.4-6.7 6.5 3.3-5.5 4.9-12.4 5.1-13.4z"/><path fill="#FFE885" d="M232.3 53c-13.5 6.5-.6 33.6 4.1 31.6-1.7-6.1 8.2-32.1-4.1-31.6z"/><path fill="#F6E284" d="M280.6 63.7l-.8.9-5.3-3.3-3.7-.5-.3-1.4 4.5-.4"/><path fill="#FFE885" d="M274.7 60.3l5.8 4.1.1-.7L275 59l-4.5.4.1.7"/><path fill="#F6E284" d="M243.4 66.3l1 .8 4.7-4.1 3.6-1.1.2-1.4-4.6.3"/><path fill="#FFE885" d="M248.8 62l-5.1 4.9-.3-.6 4.9-5.5 4.6-.3-.1.7"/><path fill="#E28C7E" d="M263.1 92.7c7.4.4 13.7-2.2 13.7-2.2-.3-.1-10.5 1.7-13.9 1.3-4.6-.5-11.1-1.7-11.1-1.7s5.8 2.3 11.3 2.6z"/><path fill="#EFB692" d="M308.5 172.8c-.1.1-4.4 2.2-4.6 1.6-.2-.6 1.5-8.3 1.5-8.3l3.1 6.7z"/><path fill="#F8BB97" d="M303.2 163.4s10.2 20.5 13.6 20.8c3.3.3 5.1-11.2 3-14.7s-16.6-6.1-16.6-6.1z"/><path fill="#EFB692" d="M303.2 163.4s.9 1.7 2.2 4.2l10.1 5.5 1-2.3 4.2 1.8c-.1-1.2-.4-2.3-.8-3-.1-.1-.2-.3-.3-.4l-2.1-.6.3-.8c-4.7-2.7-14.6-4.4-14.6-4.4z"/><path fill="#3A313F" d="M306.7 109.6c.6.4 29.7 16.5 31.1 19.8 1.4 3.2-10.8 42.5-10.8 42.5L298.6 158l5.8-13h2l-1.3-.7.1-.9-.9.5-7.1-3.9 6.9-19.6 2.6-10.8z"/><path fill="#E8E6E9" d="M315 166.1l9.1 2.5-1.4 3.2-8.3-3.5"/><path fill="#FFF" d="M299.2 162.8l1.4-4.1 16.3 6-2.7 6.3"/><path fill="#EFB692" d="M319.4 171.8c-.1.3-.2.5-.6.4s-.5-.3-.4-.6c.1-.3.3-.5.6-.4.2.1.4.3.4.6zm-1.5 4.8c-.1.3-.2.5-.6.4-.5-.1-.5-.3-.4-.6.1-.3.3-.5.6-.4.3.1.5.3.4.6zm.2 3.3c-.1.4-.2.7-.9.6-.7-.1-.7-.5-.6-.9.1-.4.5-.7.9-.6.4.1.7.5.6.9zm2.1-4.3c0 .2-.2.3-.5.3s-.4-.3-.4-.5.3-.4.5-.3c.3.2.5.3.4.5zm-3.2-2.3c.2 0 .4.1.5.3.1.3-.1.5-.2.5-.2 0-.4-.1-.5-.3-.1-.3 0-.5.2-.5zm2.5.1c0 .1-.1.2-.3.2-.1 0-.2-.1-.2-.3s.1-.2.3-.2.3.2.2.3z"/><circle cx="312.8" cy="166.4" r="1.5" fill="#F5DA82"/><circle cx="312.8" cy="166.4" r="1" fill="#DFC777"/><path fill="#C53E53" d="M274.7 109.5l3.1 1.8s2 3.5 2.1 4.4c.1.9-1.3 2.9-1.7 3.6-.4.7-5.5.9-5.9.3-.4-.6-2-2.9-2-3.6.1-.8 4.4-6.5 4.4-6.5z"/><path fill="#5E8AA0" d="M237.1 105.2l-2.5 1.5s20.7 15.4 30.9 14.6c4.6-.4 7.1-11.3 7.1-11.3l-35.5-4.8z" opacity=".2"/><path fill="#FFF" d="M238.7 100.8l-3.3 4.3s24.6 17.9 33 14.2c2.8-1.3 6.4-9.8 6.4-9.8l-36.1-8.7z"/><path fill="#5E8AA0" d="M288.5 103l.8 2.8s3.2 10.9-2.8 13.6c-3.3 1.4-6.6-3.2-6.6-3.2l8.6-13.2z" opacity=".2"/><path fill="#FFF" d="M287.9 101.6l1.3 3.4s1.9 12.3-4.6 13.1c-4 .5-9.9-8.6-9.9-8.6l13.2-7.9z"/><path fill="#EFB692" d="M274.7 109.5c.7-.3 1.5-.9 2-1.2-.2-1.3-.4-3.9-1.1-6.2-.2 2.4-.2 4.9-.9 7.4z"/><path fill="#382F3C" d="M292 103.2l-3.7-.7.9 2.4-2.7 16.7 8.7 2.3 6.6-9.1"/><path fill="#352C3A" d="M233 103.2l3.4-.9 9.1 20-9.2 6.6-7.7-8.7"/><path fill="#352C3A" d="M230.5 184.8l25.4 2.2-.6 5.9-25.2-3.8" opacity=".3"/><path fill="#382F3C" d="M228.8 182.6l25.4 2.3-.6 5.9-25.2-3.9"/><path fill="#EFB692" d="M219.3 179.3c.1.1 4.8 3.2 5.2 2.5s-.6-9.8-.6-9.8l-4.6 7.3z"/><path fill="#F8BB97" d="M226.7 169s-14.7 22.5-18.6 22.4c-3.9-.1-4.4-13.8-1.6-17.6 2.9-3.8 20.2-4.8 20.2-4.8z"/><path fill="#EFB692" d="M226.7 169s-1.2 1.9-3.1 4.6l-12.5 5-.8-2.8-5.1 1.5c.3-1.4.7-2.6 1.3-3.4.1-.1.2-.3.4-.4l2.6-.4-.3-.9c5.8-2.5 17.5-3.2 17.5-3.2z"/><path fill="#3A313F" d="M216.2 109.7c-.8.4-23 11.4-25.1 15s6.9 51 6.9 51l35-12.4-15.8-45.2 13-12.4-14 4z"/><path fill="#E8E6E9" d="M212.6 170.6l-10.9 1.7 1.2 3.9 10.1-2.9"/><path fill="#FFF" d="M231.6 168.9l-1.2-5-19.8 4.8 2.3 7.7"/><path fill="#EFB692" d="M206.8 176.7c0 .3.1.6.7.5.5-.1.6-.3.6-.7 0-.3-.3-.6-.7-.5-.4.1-.6.4-.6.7zm1 5.8c0 .3.1.6.7.5.5-.1.6-.3.6-.7s-.3-.6-.7-.5c-.4.1-.6.3-.6.7zm-.6 3.8c0 .5.2.8 1 .8.8-.1.8-.5.8-.9 0-.5-.5-.9-1-.8s-.9.4-.8.9zm-1.9-5.3c0 .2.2.4.6.4.3 0 .5-.2.5-.5s-.3-.5-.6-.4c-.3.1-.5.3-.5.5zm4.1-2.3c-.2-.1-.4.1-.6.3s0 .6.2.6c.2.1.5 0 .6-.3s0-.5-.2-.6zm-3-.2c0 .1.1.2.3.2.2 0 .2-.1.2-.3 0-.1-.1-.3-.3-.2s-.2.1-.2.3z"/><circle cx="215.1" cy="171.3" r="1.8" fill="#F5DA82"/><circle cx="215.1" cy="171.3" r="1.2" fill="#DFC777"/><path fill="#E5A27E" d="M252.2 65.6c-1.3 1.4-1.4 3.1-.6 4.5l5.6-4.8c-1.5-1.2-3.4-1.2-5 .3z"/><circle cx="255.2" cy="67.2" r=".6" fill="#675A6E"/><path fill="#FFF" d="M275.9 65.2c.9 1.8.4 4-1.6 5s-4.1.2-5-1.6c-.9-1.8-.5-4 1.6-5 2.1-1.1 4-.2 5 1.6z"/><path fill="#E5A27E" d="M269.7 64c-1.3 1.4-1.4 3.1-.6 4.5l5.6-4.8c-1.5-1.2-3.5-1.2-5 .3z"/><circle cx="272.7" cy="65.6" r=".6" fill="#675A6E"/><path fill="#FFE885" d="M270.4 48.5s6.2 3.1 7.8 6.5c.2 5.4.3 10.5 2.4 14.6C269 57 270.4 48.5 270.4 48.5z"/><path fill="#F8BB97" d="M287.9 101.6c-1-4.4-13.8-54.1-13.8-54.1l-26.1 1-19.6 11s10.6 42.5 11.2 45.4c.6 2.8 37.1 5.8 37.1 5.8s11.8-6.4 11.2-9.1z"/><path fill="#FFF" d="M258.4 66.8c.9 1.8.4 4-1.6 5-2.1 1.1-4.1.2-5-1.6-.9-1.8-.5-4 1.6-5 2.1-1.1 4.1-.2 5 1.6z"/><path fill="#F6E284" d="M231.8 56.6l-4.2-12.2s19.2-16.7 36.3-15.9 24 24.6 24 24.6S264 63.4 252.4 59s-20.6-2.4-20.6-2.4z"/><path fill="#E5A27E" d="M266.4 68s3.2 14.7 2.8 15.9c-.6 2-3.4 1.5-4.7 1-2.3-.9-2.2-4.2.1-3.7.1-4.4-.7-13.5-.7-13.5l2.5.3z"/><path fill="#EFB692" d="M233.8 77.9s-3.7.7-3.3 2.9 4.5 10 4.3 11.1c-.3 2.4.9 3.2 2.3 2.6-.6-3.5-3.3-16.6-3.3-16.6z"/><g fill="#FFE885"><path d="M282.5 41.6l-.4-.4-1.1 1.1.4.4"/><path d="M279.767 43.363l1.033-1.221.382.322-1.033 1.222zm.461-1.824l-.349-.358 1.146-1.117.35.358zM269.6 36.2c.2.1.3.2.5.2l.7-1.4c-.2-.1-.3-.2-.5-.2l-.7 1.4zm9 11c-.2-.1-.3-.1-.5-.2l-.7 1.4c.2.1.3.2.5.2l.7-1.4zm1.3.5c-.1 0-.3-.1-.4-.1l-.5 1.5c.2.1.4.1.6.1l.3-1.5zm-.7-3.8c-.2-.1-.3-.2-.5-.3L278 45c.2.1.3.2.5.3l.7-1.4zm-3.7-7.3l.3.3 1.2-1c-.1-.1-.2-.3-.4-.4l-1.1 1.1zm-3.1-3.8l-.7 1.4c.2.1.3.1.5.2l.7-1.4c-.1-.1-.3-.2-.5-.2zm-.1 4.9l.5.3.8-1.4-.5-.3m.6 2.2c.1.1.2.1.4.3l.9-1.3c-.2-.1-.4-.2-.5-.3l-.8 1.3zm4.302.764l-.347-.36 1.154-1.11.346.36zM270.4 33.6c.2.1.3.1.5.2l.6-1.5c-.2-.1-.3-.1-.5-.2l-.6 1.5zm4 2.1c.1.1.3.2.4.3l1-1.3c-.1-.1-.3-.2-.5-.3l-.9 1.3zm2.2 2l.3.4 1.2-1.1-.4-.4M276.5 48l.7-1.4-.5-.3-.7 1.4m3.126-7.35l-.348-.36 1.15-1.113.347.36zM276.6 42.3c-.1-.1-.3-.2-.4-.3l-1 1.2c.1.1.3.2.5.4l.9-1.3zm-5.1 1.3c-.2-.1-.3-.2-.5-.2l-.7 1.4c.2.1.3.1.5.2l.7-1.4zm.2-8l-.8 1.4c.2.1.3.2.5.3l.8-1.4c-.1-.2-.3-.3-.5-.3zm.5 3.5l-.8 1.4c.2.1.3.2.4.3l.8-1.4c0-.2-.2-.2-.4-.3zm-3.5 0c.2.1.3.1.5.2l.6-1.5c-.2-.1-.3-.1-.5-.2l-.6 1.5zm2.6-.5c-.2-.1-.3-.2-.5-.2l-.7 1.4c.2.1.3.2.5.2l.7-1.4zm-1.9 5.8l.6-1.5c-.2-.1-.3-.1-.5-.2l-.6 1.5c.2.1.4.1.5.2zm3.6-.1l-.5-.2-.7 1.4.5.2m3.8-5.3l.4.3 1-1.2-.4-.4m-.5 5.1c.2.1.3.2.5.3l.8-1.4c-.2-.1-.3-.2-.4-.3l-.9 1.4zm-1.7-4.8c.1.1.3.2.4.3l1-1.2c-.1-.1-.3-.2-.4-.3l-1 1.2zm.6 1.9l-.4-.4-1 1.2c.1.1.2.2.4.3l1-1.1zm-1.4-1.1c-.1-.1-.3-.2-.5-.3l-.9 1.3c.1.1.3.2.4.3l1-1.3zm5.9 1.3l-.4-.3-1 1.2.4.3m.4 3.1l.5.2.7-1.4-.5-.2m-2.386-2.678l-.384-.319 1.021-1.231.385.32zM265.2 55.7l-.5-.1-.4 1.5.6.1m-.3-9.9l-.5-.1-.3 1.6.5.1m2.671 3.084l.49.105-.336 1.564-.489-.104zM260.9 34h.5v-1.6h-.6l.1 1.6zm4.3 2.2c-.2-.1-.4-.1-.5-.1l-.4 1.5c.2 0 .3.1.5.1l.4-1.5zm-5.3-4.8h.5l.1-1.6h-.6v1.6zm9 1.7c.2.1.3.1.5.2l.5-1.5c-.2-.1-.3-.1-.5-.2l-.5 1.5zm-1.1 3.9l-.6 1.5c.2.1.3.1.5.2l.6-1.5c-.2 0-.3-.1-.5-.2zm-6.6-1l.2 1.6c.2 0 .3 0 .5-.1l-.2-1.6c-.1 0-.3.1-.5.1zm9.6 12.5l-.5-.1-.2 1.6.5.1m1.5 2.8c-.2 0-.3 0-.5-.1l-.3 1.6c.2 0 .4.1.5.1l.3-1.6zm-4.4-5l-.5-.1-.3 1.6.5.1m3.9 6.7h-.5l.1 1.6h.5l-.1-1.6zm-2-8l-.5-.1-.3 1.6.5.1m1.6 2.9l-.6-.1-.3 1.5.5.1m-6.167-1.257l-.49-.1.318-1.568.49.1zM265.3 34.5c.2 0 .3.1.5.1l.5-1.5c-.2-.1-.3-.1-.5-.2l-.5 1.6zm.7-2.3c.2 0 .3.1.5.1l.4-1.5c-.2 0-.3-.1-.5-.1l-.4 1.5zm2 11.7l.5-1.5c-.2-.1-.4-.1-.6-.2l-.4 1.5c.2.1.4.1.5.2zm-1.7-5.7l.5-1.5c-.2-.1-.3-.1-.5-.2l-.5 1.5c.1.1.3.1.5.2zm-3.3 5.2l.5.1v-1.6h-.5m3.8-6.9c.2.1.3.1.5.2l.6-1.5c-.2-.1-.3-.1-.5-.2l-.6 1.5zm.7-2.4c.2 0 .3.1.5.1l.4-1.5c-.2 0-.3-.1-.5-.1l-.4 1.5zm.7 3c.2.1.3.1.5.2l.7-1.4c-.2-.1-.3-.1-.5-.2l-.7 1.4zm-2 7.2v.8h.4l.1-.8V42h-.5m-3.3-6.2v1.6h.5l.1-1.6h-.6zm-1.5-4.3c.2 0 .3 0 .5.1l.2-1.6c-.2 0-.4 0-.5-.1l-.2 1.6zm1 2.5h.5l.2-1.6h-.6l-.1 1.6zm.5-2.3c.2 0 .3 0 .5.1l.2-1.6c-.2 0-.4-.1-.5-.1l-.2 1.6zm1.7 11.8h.5v-1.6h-.5m-.2-7.6l.3-1.6c-.2 0-.4-.1-.5-.1l-.3 1.6c.1 0 .3.1.5.1zm-7.3 7.6h-.5l.1 1.6h.5m-3.1 10.2h-.5l-.1 1.6h.5l.1-1.6zm-.2-11.6c-.2 0-.4 0-.5.1l.2 1.6c.2 0 .3 0 .5-.1l-.2-1.6zm-.5 3.9h-.5v1.6h.5V46zm-1.6-7.7l.5 1.5c.2-.1.3-.1.5-.1l-.4-1.5c-.2 0-.4 0-.6.1zm.1-6.6l.6 1.5c.2-.1.3-.1.5-.2l-.6-1.5c-.1.1-.3.2-.5.2zm-.4 3.3l.5 1.4.5-.1-.5-1.5m-1.7 4l.5 1.5c.2-.1.3-.1.5-.2l-.5-1.5c-.2.1-.4.1-.5.2zm2.8 11.2h-.6l.1 1.6h.5V50zM249 33l.7 1.4.4-.2-.6-1.4m3.9 5.1l.4 1.5c.2 0 .3-.1.5-.1l-.4-1.5c-.2 0-.3 0-.5.1zm-.4-3.5l.5 1.5.5-.2-.5-1.5m2 7.8h-.5l.1 1.6h.5m-.9 6.4h-.5v1.6h.5V50zm.3-3.9h-.5l-.1 1.6h.5l.1-1.6zm-4.5-13.8l.6 1.5c.2-.1.3-.1.5-.2l-.6-1.5c-.2.1-.4.2-.5.2zm5.3 21.6c-.2 0-.4 0-.5-.1l-.2 1.6c.2 0 .3 0 .5.1l.2-1.6zM250 35.5l.6 1.5.5-.2-.6-1.5m17.644 18.482l.33-1.565.49.103-.33 1.566zM252.3 42.3c-.2 0-.4 0-.5.1l.2 1.6c.2 0 .3 0 .5-.1l-.2-1.6zm14.2 15.3l.3-1.6c-.2 0-.3-.1-.5-.1l-.3 1.6c.1 0 .3 0 .5.1zm-1.407-4.479l.327-1.566.489.102-.327 1.567zM284.4 46.4l-.7 1.5.4.1-.1 1.6.5.1.1-1.6h-.4l.7-1.5m1.1 1.6c-.1-.2-.2-.5-.3-.7l-.5 1 .4.2-.1 1h.5l.1-1.1c0-.1-.1-.3-.1-.4zm-.1 4h.6v-1.6h-.5l-.1 1.6zm-16.2 5.6v-1.6h-.5l-.1 1.6h.6zm-19-15.2c-.2 0-.4.1-.5.1l.3 1.6c.2 0 .3-.1.5-.1l-.3-1.6zm-3.2-8.9l.7 1.4.5-.2-.7-1.5m4.5 20.3h-.5v1.6h.5v-1.6zm-.7-7.6h-.5l.1 1.6h.5l-.1-1.6zm-2.2-8.7l-.6-1.5-.5.3.6 1.4m2 14.1c.2 0 .3-.1.5-.1l-.2-1.6c-.2 0-.4.1-.6.1l.3 1.6zm-1.3-11l-.5-1.5-.6.2.6 1.4m5.7-10.1l.4 1.5c.2 0 .3-.1.5-.1l-.4-1.5c-.2 0-.3 0-.5.1zm3.4 7.5c.2 0 .3-.1.5-.1l-.4-1.5c-.2 0-.3.1-.5.1l.4 1.5zm3.7 16.8l-.5-.1-.4 1.5.5.1m-.3-9.7l-.5-.1-.2 1.6.5.1M257.6 33l.4 1.5c.2 0 .3-.1.5-.1l-.4-1.5c-.2 0-.3 0-.5.1zm3.6 17.8l-.6-.1-.2 1.5.5.1m1-10.5h-.5v1.6h.5m-1.6 0v-1.6h-.5v1.6m.3-7.2h-.1c-.1 0-.3.1-.4.1l.3 1.6c.1 0 .3-.1.4-.1h.1l-.3-1.6zm2.98 19.06l.488.114-.362 1.558-.487-.113zm-3.28-8.76h-.5l-.2 1.5.5.1m22.4-2.8l-.5-.2-.7 1.4.5.2m-18.755.265l.493.086-.277 1.576-.492-.086zM256.4 50.1h-.5l-.1 1.6h.5l.1-1.6zm6.3 1l-.5-.1-.3 1.5.5.1m-4-21.1c.2 0 .3 0 .5-.1l-.1-1.6c-.2 0-.4 0-.6.1l.2 1.6zm1.1 2.7c.2 0 .3-.1.5-.1l-.3-1.6c-.2 0-.4.1-.5.1l.3 1.6zm-4.6 3.3l.4 1.5.6-.1-.5-1.5m-.9-3.5l.5 1.5.5-.2-.5-1.5m5.5 21l-.5-.2-.3 1.6.5.1m-3.6-10h-.5l-.1 1.6h.5l.1-1.6zm.8 7.9l-.6-.1-.2 1.6.5.1m.9-5.4c-.2 0-.4 0-.5-.1l-.2 1.6c.2 0 .3 0 .5.1l.2-1.6zm14.8 5.7c-.2 0-.3 0-.5.1l.2 1.6c.2 0 .4 0 .5-.1l-.2-1.6zm-19.3-24.8l.5 1.5c.2-.1.3-.1.5-.2L254 31c-.2 0-.4.1-.5.2zm5.4 23.2l-.5-.1-.2 1.5.5.1m.9-5.4l-.6-.1-.2 1.6.5.1M256 33.4l.4 1.5c.2 0 .3-.1.5-.1l-.4-1.5c-.1 0-.3.1-.5.1zm24.8 15.9l.5.1.2-1.6h-.6m-22.7-1.5h-.5l-.2 1.6h.6m.6-6h-.5v1.6h.6m-2.3-6.4l.4 1.5.5-.1-.4-1.6m9.2 10.7l-.6-.1-.3 1.6.6.1m-21.5.3l-.6-1.5c-.2.1-.3.1-.5.2l.6 1.5c.2-.1.4-.1.5-.2zm.1 4.5h-.6l.2 1.6h.5m-1.067-3.788l.388 1.552-.485.121-.389-1.552zM245 53.1l.5-.1-.4-1.6-.5.2.2.7m-3.254-6.307l.786 1.394-.436.246-.785-1.394zM243 50.1l-.7-1.4-.5.2.7 1.4m.4 3.9h-.6l.2 1.6.5-.1m3.1-1.9l-.6.1.2 1.6.5-.1m.506-4.337l.362 1.559-.487.113-.362-1.559zm.994 2.637l-.6.1.1 1.6.6-.1m-1.9-11.5c-.2.1-.4.1-.5.2l.6 1.5c.2-.1.3-.1.5-.2l-.6-1.5zm-3.903 8.466l.399 1.55-.484.124-.4-1.55zM244.9 39.6c.1-.1.3-.1.5-.2l-.7-1.4c-.2.1-.3.2-.5.2l.7 1.4zm-1.6-3.7l.8 1.3.4-.2-.7-1.4m1.2 7.1l.4-.2-.6-1.5-.5.2m1.6 7.7l-.6-1.5c-.2.1-.3.1-.5.2l.6 1.5c.2 0 .3-.1.5-.2zm-7.116-1.387l.759 1.408-.44.238-.76-1.41zM240.9 44.9c.2-.1.3-.2.4-.3l-.9-1.3c-.1.1-.2.2-.4.3l.9 1.3zm-1.321-2.048l-.843-1.36.425-.264.843 1.36zm-.944-2.403l-.832-1.367.428-.26.831 1.367zm2.21 1.58l-.84-1.362.426-.262.839 1.363zM242.2 44.1c.1-.1.3-.2.4-.3l-.8-1.4c-.2.1-.3.2-.5.3l.9 1.4zm-2.6 1.8l.4-.3-.9-1.4-.4.3m2.9 6.3l-.7-1.4-.5.2.7 1.4m-1.9-12.8l.8 1.4.4-.3-.8-1.4m1.7 16.5h-.6l.3 1.6.5-.1m-1.365-9.125l.772 1.4-.438.242-.772-1.401zm.308 5.836l.409 1.547-.484.128-.408-1.547zm-3.18-11.363l-.846-1.359.424-.264.846 1.358zM240.1 51.5l-.7-1.4-.5.2.8 1.4m-1.515-8.028l-.839-1.362.426-.262.839 1.362zM247.3 48.4l-.5-1.5c-.2.1-.3.1-.5.2l.5 1.5c.2-.1.4-.1.5-.2zm-18.8-1.3V47l-.2-.3m49.2 8.7l-.5.1.2 1.4c.2-.1.3-.1.5-.2l-.2-1.3zm-1.6.2l-.5.1.2 1.6.4-.1h.1l-.2-1.6zm-31.2-20.5l.7 1.4.5-.2-.7-1.5m22.5 21.3l-.2 1.6c.2 0 .4 0 .5.1l.1-1.6s-.2-.1-.4-.1zm-27.8 0l-.2-1.6-.5.1.2 1.5h.5zm-3.2 0l-.2-1-.3.1-.4-1.3-.5.1.4 1.5.3-.1.1.7h.6zm1.6 0l-.2-1.3-.3.1-.4-1.4-.5.1.4 1.5.3-.1.2 1.1h.5zm49.4-3.5c-.1 0-.3 0-.4.1l.1.6c.3-.1.5-.2.5-.2s-.2-.2-.2-.5zm-15.767-3.915l.493.082-.263 1.578-.493-.082zM234.9 55.4l-.3.1-.3-.9.2-.1-.8-1.4-.5.3.6 1.1h-.1l.4 1.5.3-.1.1.3h.5l-.1-.8zm44.2-.3l-.5.1.2 1.1c.2-.1.3-.1.5-.2l-.2-1zm5.6-2.2h-.5l.1 1.5c.2-.1.4-.1.5-.2l-.1-1.3zm-.9 1.6l-.5.1v.2c.2-.1.3-.1.5-.2v-.1zm-3.1.4l-.5.1.1.9c.2-.1.3-.1.5-.2l-.1-.8zm1.6-.2l-.5.1.1.6c.2-.1.3-.1.5-.2l-.1-.5zm-32.2-8.5c-.2 0-.4 0-.5.1l.2 1.6c.2 0 .3 0 .5-.1l-.2-1.6zm0 5.7l-.3-1.5-.5.1.3 1.5m-.8-4l-.3-1.5c-.2 0-.4.1-.5.1l.4 1.5c.1 0 .3 0 .4-.1zm.5 5.7h-.6l.1 1.6.5-.1m-1.8-12c-.2 0-.4.1-.5.2l.5 1.5c.2 0 .3-.1.5-.1l-.5-1.6zm-14.2 12.5c-.1 0-.2 0-.3.1l-.1-.5.2-.1-.8-1.4-.5.3.5.8h-.1l.5 1.5.2-.1c.2 0 .3 0 .5-.1l-.1-.5zM246.4 42l.5-.2-.6-1.4-.5.2m2.8 11.7l-.4-1.6-.5.1.4 1.6m-1.8-13.5l.4-.2-.6-1.5-.5.2m-4.298 1.348l-.802-1.385.433-.25.802 1.384zM231.9 56.1h-.3l.2.6h.2l-.1-.6zm15.6-19.5l-.4.2.6 1.4.5-.2m.1 3.2l-.6-1.4-.4.2.6 1.4m-1.3-7.3l-.5.3.7 1.4.5-.3m1.8 7.4c-.2 0-.4.1-.5.1l.4 1.5c.2 0 .3-.1.5-.1l-.4-1.5zm1.8 10.7h-.5v1.6h.5m35.3-2.4h-.5l.1 1c.2-.1.4-.1.5-.2l-.1-.8zm-3.2-7l-.7 1.4.5.2.6-1.4m.9 6.1h.5l.1-1.6h-.5l-.1 1.6z"/><path d="M285.5 47.2c-.1-.2-.2-.4-.2-.5l-.7.8.4.3.5-.6zm-.9-1.8l-.2-.2-1 1.2.4.3.8-.9.1.2.2-.2c-.1-.1-.2-.3-.3-.4zm-2.8 4.8l-.5-.1-.2 1.6.5.1m1.8-7.4l-.2-.2-1 1.2.4.3.8-1 .2.2.6-.6c-.1-.2-.2-.3-.3-.5l-.5.6zm-.3 8.6h-.5v1.6l.6-.1m.2-4.1l-.5-.1-.2 1.6.5.1m-.7-4.1l-.1 1.6h.5l.1-1.5m-51.8 7l.4 1.1c.1 0 .1-.1.2-.1l-.6-1zm-.5-1.5c.1 0 .2-.1.3-.2l-.6-1.3.4-.3-.9-1.3-.2.1.4 1 .2.3h-.1l.5 1.7zm26.2-21.7c.2 0 .3-.1.5-.1l-.3-1.6c-.2 0-.3.1-.5.1l.3 1.6zm25.3 11.6l-.2-.2-1 1.2.4.3.9-1.1.2.2.6-.6.3-.3c-.1-.1-.2-.3-.3-.4l-.9.9zm-9.1-8.5c.2.1.3.2.4.3l.8-1.4c-.2-.1-.3-.2-.5-.3l-.7 1.4zM265 32l.3-1.6c-.2 0-.4-.1-.5-.1l-.3 1.6c.1.1.3.1.5.1zm13.3 21.1h-.5v1.6h.5m-3.1-1.6h-.6v1.6h.5M274 49l-.5-.1-.1.6-.2 1 .5.1m2.5 2.5h.5v1.6h-.5zm-2.3-8.3l-.7 1.4.5.3.7-1.4"/><path d="M273.3 49.7l.1-.2.1-.6m8 4.1h-.5v1.6h.6m-39.1-9.1l.8 1.4.4-.3-.8-1.4m30.7 7.9h-.5v1.6h.5v-1.6zm4.531-3.425l.495.075-.24 1.582-.495-.075zm1.247 3.429l.5-.01.03 1.6-.5.01zM280.3 50l-.6-.1-.2 1.6.5.1m-51.005-6.788l.91 1.317-.412.284-.91-1.316zm45.555 2.17l.751-1.412.442.235-.752 1.412zm2.085 2.492l.494.078-.25 1.58-.494-.078zm-1.819 1.28l.26-1.58.493.082-.26 1.579zM274.6 57.4l-.2-1.6-.5.1.1.8.1.8m-44.9-10.227l.426-.262.838 1.363-.426.262zm8.057-3.03l-.426.263-.839-1.363.426-.262zm-1.275 4.774l.737 1.42-.444.23-.736-1.42zm1.366-.741l.746 1.415-.442.233-.747-1.415zm-.874-2.27l.893 1.327-.415.28-.893-1.329zm.083 5.52l.75 1.414-.442.234-.75-1.414zm-1.93-7.557l.426-.262.84 1.363-.427.262zm3.305 6.809l.734 1.421-.445.23-.733-1.422zM243.6 43.4c.2-.1.3-.2.5-.2l-.7-1.4c-.2.1-.3.2-.5.2l.7 1.4zm-1.36-2.184l-.839-1.363.426-.262.838 1.363zm-3.336 11.842l.418 1.544-.483.13-.417-1.544zM241.9 36.6l.8 1.4.4-.2-.7-1.4m-4.56 8.79l.898 1.324-.414.28-.898-1.324zm4.867-6.218l.425-.264.843 1.36-.425.264zM243.9 44.7l.8 1.4c.1-.1.3-.2.4-.2l-.7-1.4c-.2 0-.4.1-.5.2zm-7.948-2.676l-.856-1.35.422-.269.857 1.352zm-2.74 8.447l.718 1.43-.446.224-.72-1.43zm-2.599-4.028l.426-.262.838 1.364-.426.261zm.935-3.38l.889 1.33-.416.278-.889-1.33zm1.044 5.642l.886 1.332-.417.277-.886-1.332zm1.635-7.458l.866 1.346-.42.27-.866-1.345zm-4.007 2.723l.899 1.324-.414.28-.898-1.324zm1.488 7.269l.708 1.435-.449.22-.707-1.434zm-.518-1.716l.884 1.333-.417.276-.884-1.333zm2.161-4.69l.426-.261.838 1.363-.426.262zm-1.41.833l.426-.262.838 1.363-.426.262zm3.211 1.267l.89 1.33-.415.278-.89-1.33zm.045 5.327l.76 1.409-.441.237-.759-1.409zm-.599-2.53l.728 1.425-.446.227-.727-1.425zm-.682-1.94l.887 1.331-.416.277-.887-1.331zm-.116-4.29l-.9-1.3-.5.2.9 1.4"/></g><path fill="#EFB692" d="M248.4 89.1c.1.5.1.9-.7 1-.8.2-.9-.2-1.1-.6-.1-.5.2-1 .7-1s1 .1 1.1.6zm.7 2.8c.1.3-.2.6-.6.8-.4.2-.8-.1-.9-.4-.1-.3.1-.7.6-.8.4-.1.8.1.9.4zm-3.7-1.1c.3-.2.6-.1 1 .2s.3.8 0 1c-.3.2-.7.2-1-.2s-.2-.8 0-1zm4.7-.3c0 .2 0 .4-.3.4-.3.1-.4-.1-.4-.3 0-.2 0-.4.3-.4s.3.1.4.3zm28-10.8c.1.5.1.9-.7 1s-.9-.2-1.1-.6c-.1-.5.2-1 .7-1 .6-.1 1 .2 1.1.6zm.6 2.9c.1.3-.2.6-.6.8-.4.2-.8-.1-.9-.4-.1-.3.1-.7.6-.8s.8.1.9.4zm-3.5-1.1c.3-.2.6-.1 1 .2.4.3.3.8 0 1-.3.2-.7.2-1-.2-.3-.4-.3-.8 0-1zm4.5-.2c0 .2 0 .4-.3.4-.3.1-.4-.1-.4-.3 0-.2 0-.4.3-.4s.4.1.4.3zM238 98c7 2.4 28.9 8.4 36.7 11.4-4.3.2-35-4.3-35-4.3 0-.1-.1-.1-.1-.2 0-.2-.1-.5-.2-.9-.4-1.5-.3-1.4-1.4-6zm48.3-3.3c.5 1.6 1.4 6.1 1.5 6.3 0 .1.1.5.1.6-.2 1.5-3.8 6.4-6.7 6.5 3.3-5.5 4.9-12.4 5.1-13.4z"/><path fill="#FFE885" d="M232.3 53c-13.5 6.5-.6 33.6 4.1 31.6-1.7-6.1 8.2-32.1-4.1-31.6z"/><path fill="#F6E284" d="M280.6 63.7l-.8.9-5.3-3.3-3.7-.5-.3-1.4 4.5-.4"/><path fill="#FFE885" d="M274.7 60.3l5.8 4.1.1-.7L275 59l-4.5.4.1.7"/><path fill="#F6E284" d="M243.4 66.3l1 .8 4.7-4.1 3.6-1.1.2-1.4-4.6.3"/><path fill="#FFE885" d="M248.8 62l-5.1 4.9-.3-.6 4.9-5.5 4.6-.3-.1.7"/><path fill="#E28C7E" d="M263.1 92.7c7.4.4 13.7-2.2 13.7-2.2-.3-.1-10.5 1.7-13.9 1.3-4.6-.5-11.1-1.7-11.1-1.7s5.8 2.3 11.3 2.6z"/><path fill="#EFB692" d="M308.5 172.8c-.1.1-4.4 2.2-4.6 1.6-.2-.6 1.5-8.3 1.5-8.3l3.1 6.7z"/><path fill="#F8BB97" d="M303.2 163.4s10.2 20.5 13.6 20.8c3.3.3 5.1-11.2 3-14.7s-16.6-6.1-16.6-6.1z"/><path fill="#EFB692" d="M303.2 163.4s.9 1.7 2.2 4.2l10.1 5.5 1-2.3 4.2 1.8c-.1-1.2-.4-2.3-.8-3-.1-.1-.2-.3-.3-.4l-2.1-.6.3-.8c-4.7-2.7-14.6-4.4-14.6-4.4z"/><path fill="#3A313F" d="M306.7 109.6c.6.4 29.7 16.5 31.1 19.8 1.4 3.2-10.8 42.5-10.8 42.5L298.6 158l5.8-13h2l-1.3-.7.1-.9-.9.5-7.1-3.9 6.9-19.6 2.6-10.8z"/><path fill="#E8E6E9" d="M315 166.1l9.1 2.5-1.4 3.2-8.3-3.5"/><path fill="#FFF" d="M299.2 162.8l1.4-4.1 16.3 6-2.7 6.3"/><path fill="#EFB692" d="M319.4 171.8c-.1.3-.2.5-.6.4s-.5-.3-.4-.6c.1-.3.3-.5.6-.4.2.1.4.3.4.6zm-1.5 4.8c-.1.3-.2.5-.6.4-.5-.1-.5-.3-.4-.6.1-.3.3-.5.6-.4.3.1.5.3.4.6zm.2 3.3c-.1.4-.2.7-.9.6-.7-.1-.7-.5-.6-.9.1-.4.5-.7.9-.6.4.1.7.5.6.9zm2.1-4.3c0 .2-.2.3-.5.3s-.4-.3-.4-.5.3-.4.5-.3c.3.2.5.3.4.5zm-3.2-2.3c.2 0 .4.1.5.3.1.3-.1.5-.2.5-.2 0-.4-.1-.5-.3-.1-.3 0-.5.2-.5zm2.5.1c0 .1-.1.2-.3.2-.1 0-.2-.1-.2-.3s.1-.2.3-.2.3.2.2.3z"/><circle cx="312.8" cy="166.4" r="1.5" fill="#F5DA82"/><circle cx="312.8" cy="166.4" r="1" fill="#DFC777"/><path fill="#C53E53" d="M274.7 109.5l3.1 1.8s2 3.5 2.1 4.4c.1.9-1.3 2.9-1.7 3.6-.4.7-5.5.9-5.9.3-.4-.6-2-2.9-2-3.6.1-.8 4.4-6.5 4.4-6.5z"/><path fill="#FFF" d="M238.7 100.8l-3.3 4.3s24.6 17.9 33 14.2c2.8-1.3 6.4-9.8 6.4-9.8l-36.1-8.7z"/><path fill="#FFF" d="M287.9 101.6l1.3 3.4s1.9 12.3-4.6 13.1c-4 .5-9.9-8.6-9.9-8.6l13.2-7.9z"/><path fill="#EFB692" d="M274.7 109.5c.7-.3 1.5-.9 2-1.2-.2-1.3-.4-3.9-1.1-6.2-.2 2.4-.2 4.9-.9 7.4z"/><path fill="#382F3C" d="M292 103.2l-3.7-.7.9 2.4-2.7 16.7 8.7 2.3 6.6-9.1"/><path fill="#352C3A" d="M233 103.2l3.4-.9 9.1 20-9.2 6.6-7.7-8.7"/><path fill="#352C3A" d="M230.5 184.8l25.4 2.2-.6 5.9-25.2-3.8" opacity=".3"/><path fill="#382F3C" d="M228.8 182.6l25.4 2.3-.6 5.9-25.2-3.9m83.3 2.5c1.7-1.7 3.2-3.5 4.7-5.3l-12.8 2.4.6 3.7 7.5-.8z"/><g><path fill="#EFB692" d="M219.3 179.3c.1.1 4.8 3.2 5.2 2.5s-.6-9.8-.6-9.8l-4.6 7.3z"/><path fill="#F8BB97" d="M226.7 169s-14.7 22.5-18.6 22.4c-3.9-.1-4.4-13.8-1.6-17.6 2.9-3.8 20.2-4.8 20.2-4.8z"/><path fill="#EFB692" d="M226.7 169s-1.2 1.9-3.1 4.6l-12.5 5-.8-2.8-5.1 1.5c.3-1.4.7-2.6 1.3-3.4.1-.1.2-.3.4-.4l2.6-.4-.3-.9c5.8-2.5 17.5-3.2 17.5-3.2z"/><path fill="#3A313F" d="M216.2 109.7c-.8.4-23 11.4-25.1 15s6.9 51 6.9 51l35-12.4-15.8-45.2 13-12.4-14 4z"/><path fill="#E8E6E9" d="M212.6 170.6l-10.9 1.7 1.2 3.9 10.1-2.9"/><path fill="#FFF" d="M231.6 168.9l-1.2-5-19.8 4.8 2.3 7.7"/><path fill="#EFB692" d="M206.8 176.7c0 .3.1.6.7.5.5-.1.6-.3.6-.7 0-.3-.3-.6-.7-.5-.4.1-.6.4-.6.7zm1 5.8c0 .3.1.6.7.5.5-.1.6-.3.6-.7s-.3-.6-.7-.5c-.4.1-.6.3-.6.7zm-.6 3.8c0 .5.2.8 1 .8.8-.1.8-.5.8-.9 0-.5-.5-.9-1-.8s-.9.4-.8.9zm-1.9-5.3c0 .2.2.4.6.4.3 0 .5-.2.5-.5s-.3-.5-.6-.4c-.3.1-.5.3-.5.5zm4.1-2.3c-.2-.1-.4.1-.6.3s0 .6.2.6c.2.1.5 0 .6-.3s0-.5-.2-.6zm-3-.2c0 .1.1.2.3.2.2 0 .2-.1.2-.3 0-.1-.1-.3-.3-.2s-.2.1-.2.3z"/><circle cx="215.1" cy="171.3" r="1.8" fill="#F5DA82"/><circle cx="215.1" cy="171.3" r="1.2" fill="#DFC777"/></g><path fill="#E5A27E" d="M252.2 65.6c-1.3 1.4-1.4 3.1-.6 4.5l5.6-4.8c-1.5-1.2-3.4-1.2-5 .3z"/><circle cx="255.2" cy="67.2" r=".6" fill="#675A6E"/><path fill="#FFF" d="M275.9 65.2c.9 1.8.4 4-1.6 5s-4.1.2-5-1.6c-.9-1.8-.5-4 1.6-5 2.1-1.1 4-.2 5 1.6z"/><path fill="#E5A27E" d="M269.7 64c-1.3 1.4-1.4 3.1-.6 4.5l5.6-4.8c-1.5-1.2-3.5-1.2-5 .3z"/><circle cx="272.7" cy="65.6" r=".6" fill="#675A6E"/><path fill="#3A313F" d="M283.5 170l1.3.6 20.6-44.1-18.9-4.9m-8.7 47.5l-1 1.5-45.1-39.6 14-10.7"/><g><circle cx="287.7" cy="177.1" r="1.5" fill="#352C3A" opacity=".3"/><circle cx="287.3" cy="176.9" r="1.5" fill="#352C3A"/><path fill="#423946" d="M287.4 176.9c-.1.5-.1.9-.3.9-.2 0-.1-.4-.1-.9.1-.5.1-.9.3-.9.3 0 .2.4.1.9z"/><path fill="#423946" d="M287.3 177.1c-.5-.1-.9-.1-.9-.3 0-.2.4-.1.9-.1.5.1.9.1.9.3 0 .2-.4.2-.9.1z"/></g><g><circle cx="291.1" cy="192.3" r="1.5" fill="#352C3A" opacity=".3"/><circle cx="290.7" cy="192.1" r="1.5" fill="#352C3A"/><path fill="#423946" d="M290.8 192.2c-.1.5-.1.9-.3.9s-.1-.4-.1-.9c.1-.5.1-.9.3-.9.2 0 .2.4.1.9z"/><path fill="#423946" d="M290.6 192.4c-.5-.1-.9-.1-.9-.3s.4-.1.9-.1.9.1.9.3c0 .2-.4.2-.9.1z"/></g><path fill="#352C3A" d="M270.9 176.9c-1 0-1.9 0-1.9-.5 0-.6.9-.4 1.9-.4s1.8.1 1.9.5c0 .5-.8.5-1.9.4zm-1.2 15.8c-1 .1-1.9.2-1.9-.4 0-.6.8-.5 1.8-.6 1-.1 1.8-.1 1.9.4s-.8.5-1.8.6z"/><g><circle cx="287.7" cy="177.1" r="1.5" fill="#352C3A" opacity=".3"/><circle cx="287.3" cy="176.9" r="1.5" fill="#352C3A"/><path fill="#423946" d="M287.4 176.9c-.1.5-.1.9-.3.9-.2 0-.1-.4-.1-.9.1-.5.1-.9.3-.9.3 0 .2.4.1.9z"/><path fill="#423946" d="M287.3 177.1c-.5-.1-.9-.1-.9-.3 0-.2.4-.1.9-.1.5.1.9.1.9.3 0 .2-.4.2-.9.1z"/></g><g><circle cx="291.1" cy="192.3" r="1.5" fill="#352C3A" opacity=".3"/><circle cx="290.7" cy="192.1" r="1.5" fill="#352C3A"/><path fill="#423946" d="M290.8 192.2c-.1.5-.1.9-.3.9s-.1-.4-.1-.9c.1-.5.1-.9.3-.9.2 0 .2.4.1.9z"/><path fill="#423946" d="M290.6 192.4c-.5-.1-.9-.1-.9-.3s.4-.1.9-.1.9.1.9.3c0 .2-.4.2-.9.1z"/></g><path fill="#352C3A" d="M270.9 176.9c-1 0-1.9 0-1.9-.5 0-.6.9-.4 1.9-.4s1.8.1 1.9.5c0 .5-.8.5-1.9.4z"/><path fill="#352C3A" d="M309.4 192.3c1-1 2-2.3 2.9-2.3h-6.9l.3 2.9 3.7-.6z" opacity=".3"/><path fill="#352C3A" d="M269.7 192.7c-1 .1-1.9.2-1.9-.4 0-.6.8-.5 1.8-.6 1-.1 1.8-.1 1.9.4s-.8.5-1.8.6z"/></g></g></svg>